<?xml version="1.0" encoding="utf-8"?>
<!-- Generator: Adobe Illustrator 15.1.0, SVG Export Plug-In . SVG Version: 6.00 Build 0)  -->
<!DOCTYPE svg PUBLIC "-//W3C//DTD SVG 1.1//EN" "http://www.w3.org/Graphics/SVG/1.1/DTD/svg11.dtd">
<svg version="1.1" id="Layer_1" xmlns="http://www.w3.org/2000/svg" xmlns:xlink="http://www.w3.org/1999/xlink" x="0px" y="0px"
	 width="462.261px" height="111.963px" viewBox="0 0 462.261 111.963" enable-background="new 0 0 462.261 111.963"
	 xml:space="preserve">
<path fill="#433527" d="M240.406,62.661c-7.101,0.111-14.21-0.239-21.29,0.24c-8.64,0.83-17.23,2.6-25.32,5.771
	c-27.01,8.399-51.44,23.05-77.65,33.409c-22.13,8.611-46.65,12.611-70.14,7.83c-13.14-2.66-26.22-8.469-35.09-18.819
	c-7.59-8.8-11.23-20.58-10.87-32.12c-0.42-10.891,1.97-22.46,9.17-30.939c6.7-8.041,17.49-12.121,27.85-11.221
	c6.67,0.311,13.43,3.221,17.55,8.59c3.24,4.25,3.44,10.07,2.02,15.041c-1.73,4.469-5.3,7.959-9.18,10.639
	c1.98-3.34,3.18-7.75,0.84-11.239c-2.88-4.649-9.97-5.12-13.72-1.3c-4.62,4.75-5.59,12.51-2.49,18.33
	c3.36,6.1,10.311,9.58,17.04,10.289c10.18,0.881,19.01-5.43,26.48-11.549c15.46-13.311,29.38-28.541,46.53-39.801
	c14.14-9.48,30.8-15.89,47.99-15.811c16.07-0.069,32.55,4.541,45.04,14.931c6.4,5.181,11.57,11.681,15.96,18.601
	c7.9-12.771,19.44-23.621,33.67-28.851c17.34-6.51,36.94-6.06,54.25,0.319c15.12,5.521,28.34,15.141,40.33,25.721
	c9.381,8.279,18.061,17.34,27.721,25.311c5.09,4.129,10.56,8,16.819,10.14c8.32,2.84,18.16,0.159,24.11-6.25
	c5.51-6,5.17-16.37-0.9-21.851c-3.859-3.33-10.46-2.66-13.189,1.78c-2.391,3.521-1.051,7.91,0.819,11.32
	c-4.97-3.63-9.949-8.69-9.93-15.29c-1.03-7.631,4.63-14.359,11.41-17.03c13.229-5.29,29.82-0.729,38.17,10.921
	c8.03,10.869,8.67,25.159,7.271,38.109c-1.69,12.3-8.57,23.779-18.771,30.9c-14.32,10.219-32.47,13.39-49.74,13.17
	c-16.6-0.451-33.03-4.201-48.409-10.4c-25.721-10.34-49.791-24.63-76.351-32.891c-8.81-3.42-18.181-5.27-27.601-5.84"/>
</svg>
